# xmcd
#
# Track frame offsets:
#	150
#	20360
#	33420
#	58900
#	71025
#	94330
#	105955
#	135300
#	147840
#	163920
#	184772
#	204012
#
# Disc length: 2891 seconds
#
# Revision: 1
# Processed by: cddbd v1.5.2PL0 Copyright (c) Steve Scherf et al.
# Submitted via: audiograbber 1.83.01
#
DISCID=a10b490c
DTITLE=Ernst Mosch - Ein Abend mit Ernst Mosch
DYEAR=1973
DGENRE=Blasmusik
TTITLE0=Wastl - Polka
TTITLE1=Rosen so rot
TTITLE2=Brautschau
TTITLE3=Im schönen Prag
TTITLE4=Hanna - Polka
TTITLE5=Ich bin verliebt in deine schönen Augen
TTITLE6=Eine stille Stunde
TTITLE7=Dompfaff
TTITLE8=Darf ich wagen, dich zu fragen
TTITLE9=Liebe für`s ganze Leben
TTITLE10=Der Lieblingstrommler
TTITLE11=Böhmischer Wind
EXTD=Live-Aufnahme aus einer Veranstaltung vom 17. März 1972 in Mönchen-Gladbac
EXTD=h
EXTT0=
EXTT1=
EXTT2=
EXTT3=
EXTT4=
EXTT5=
EXTT6=
EXTT7=
EXTT8=
EXTT9=
EXTT10=
EXTT11=
PLAYORDER=
